<?xml version="1.0" standalone="no"?>
<!DOCTYPE svg PUBLIC "-//W3C//DTD SVG 20010904//EN"
 "http://www.w3.org/TR/2001/REC-SVG-20010904/DTD/svg10.dtd">
<svg version="1.0" xmlns="http://www.w3.org/2000/svg"
 width="439.000000pt" height="321.000000pt" viewBox="0 0 439.000000 321.000000"
 preserveAspectRatio="xMidYMid meet">

<g transform="translate(0.000000,321.000000) scale(0.100000,-0.100000)"
fill="#000000" stroke="none">
<path d="M300 2931 c-123 -40 -179 -119 -180 -251 0 -102 25 -151 140 -281 97
-110 167 -207 194 -274 10 -22 31 -96 47 -165 52 -217 141 -365 253 -419 74
-37 154 -45 294 -32 69 6 127 9 129 7 2 -2 -18 -16 -44 -32 -64 -37 -230 -206
-271 -275 -56 -95 -75 -163 -80 -280 -5 -127 10 -197 69 -317 74 -152 203
-278 364 -358 232 -114 374 -97 535 64 134 134 290 404 380 659 21 60 41 101
44 93 2 -8 11 -35 19 -60 54 -163 158 -379 253 -523 88 -132 181 -224 269
-268 62 -30 78 -34 150 -34 175 1 383 111 522 275 98 117 173 309 173 442 0
48 -24 167 -42 213 -48 123 -186 286 -308 364 l-65 42 85 -8 c154 -13 259 -8
325 17 130 50 220 188 279 431 50 205 73 246 248 444 106 119 133 176 133 280
-1 92 -21 142 -79 193 -58 51 -127 65 -280 60 -72 -3 -165 -13 -206 -22 -233
-53 -517 -179 -737 -326 -68 -45 -123 -82 -123 -83 0 -1 24 -2 53 -2 32 -1 64
-8 83 -19 l30 -18 75 48 c69 45 334 184 350 184 4 0 18 -19 32 -42 76 -128
255 -231 428 -247 l70 -6 -47 -60 c-68 -87 -111 -186 -150 -342 -55 -228 -124
-335 -229 -362 -67 -17 -138 -14 -420 19 -143 16 -363 41 -488 55 -126 14
-238 25 -250 23 -16 -2 -28 -18 -44 -58 -12 -30 -21 -56 -20 -57 1 -1 58 -7
127 -13 547 -50 942 -280 1025 -595 65 -249 -91 -522 -375 -659 -78 -38 -92
-41 -165 -41 -97 0 -127 14 -206 95 -135 138 -280 406 -368 680 -42 133 -60
219 -72 340 -10 110 -39 240 -66 300 -104 232 -216 394 -393 571 -304 304
-684 522 -1068 610 -94 22 -357 35 -402 20z m350 -142 c134 -27 170 -38 170
-53 0 -30 -83 -106 -153 -141 -71 -35 -182 -64 -243 -65 -50 0 -132 29 -149
53 -43 60 -39 151 8 195 48 45 181 49 367 11z m3381 6 c37 -19 59 -63 59 -115
0 -113 -90 -164 -246 -141 -133 20 -236 74 -308 164 -37 46 -37 47 93 76 186
42 339 48 402 16z m-2946 -155 c303 -146 613 -403 790 -656 59 -84 135 -215
135 -231 0 -8 -13 -13 -32 -13 -17 0 -104 -9 -192 -20 -867 -106 -902 -108
-989 -57 -75 44 -132 150 -173 323 -13 56 -34 131 -47 167 -24 66 -104 204
-132 227 -25 21 -17 30 28 30 102 1 241 53 343 130 51 38 124 127 124 150 0
16 26 7 145 -50z m999 -1089 c21 -93 20 -173 -4 -290 -59 -291 -235 -657 -400
-834 -111 -119 -191 -142 -331 -94 -228 78 -405 281 -440 507 -19 128 24 268
122 389 142 177 478 330 814 370 137 17 147 18 187 20 l36 1 16 -69z"/>
</g>
</svg>
