<?xml version="1.0" standalone="no"?>
<!DOCTYPE svg PUBLIC "-//W3C//DTD SVG 20010904//EN"
 "http://www.w3.org/TR/2001/REC-SVG-20010904/DTD/svg10.dtd">
<svg version="1.0" xmlns="http://www.w3.org/2000/svg"
 width="300.000000pt" height="225.000000pt" viewBox="0 0 300.000000 225.000000"
 preserveAspectRatio="xMidYMid meet">
<metadata>
Created by potrace 1.10, written by Peter Selinger 2001-2011
</metadata>
<g transform="translate(0.000000,225.000000) scale(0.050000,-0.050000)"
fill="#000000" stroke="none">
<path d="M465 4202 c-183 -31 -275 -148 -275 -349 1 -165 14 -191 199 -397
181 -200 251 -329 315 -582 132 -518 320 -669 771 -615 222 26 240 20 122 -40
-219 -112 -449 -417 -501 -664 -135 -642 711 -1364 1211 -1033 195 129 517
648 634 1023 39 123 79 163 79 79 0 -270 477 -1022 724 -1141 497 -240 1254
466 1137 1060 -50 253 -259 547 -471 659 -124 66 -113 82 45 64 507 -59 687
73 817 598 70 284 119 370 347 619 218 236 242 492 61 644 -250 210 -1032 21
-1686 -408 l-135 -89 83 -14 c45 -8 93 -24 106 -35 17 -14 55 1 128 50 131 88
436 249 469 248 14 -1 52 -39 85 -84 123 -170 365 -299 555 -298 114 1 116 -9
22 -132 -96 -124 -137 -220 -186 -432 -135 -579 -149 -582 -1501 -413 -82 10
-215 25 -294 32 l-143 13 -32 -75 c-17 -41 -31 -78 -31 -82 0 -5 37 -8 83 -8
814 0 1536 -482 1514 -1010 -20 -461 -578 -923 -911 -753 -297 151 -698 973
-738 1513 -74 1003 -1616 2218 -2603 2052z m550 -211 c168 -40 169 -41 69
-145 -261 -268 -734 -264 -734 8 0 191 232 239 665 137z m4533 26 c105 -48
118 -238 21 -314 -145 -115 -484 -43 -667 142 -105 106 -106 105 53 142 240
56 506 70 593 30z m-3995 -237 c491 -257 861 -592 1133 -1025 l116 -185 -306
-34 c-168 -19 -459 -53 -646 -75 -781 -91 -852 -63 -969 389 -23 88 -53 196
-66 240 -27 92 -120 260 -180 325 -52 55 -48 59 75 76 223 30 423 143 540 304
76 104 73 105 303 -15z m1316 -1415 c137 -357 -248 -1384 -636 -1694 -254
-203 -810 107 -946 528 -122 380 76 734 543 967 342 171 1001 298 1039 199z"/>
<path d="M3595 3385 c-275 -267 -615 -755 -561 -806 63 -58 145 6 293 228 137
205 372 463 570 625 63 52 65 57 31 82 -88 64 -163 35 -333 -129z"/>
</g>
</svg>
